<svg width="80" height="80" viewBox="0 0 80 80" fill="none" xmlns="http://www.w3.org/2000/svg">
<rect width="80" height="80" rx="40" fill="#D1FAE5"/>
<path d="M37.2 49.2L51.3 35.1L48.5 32.3L37.2 43.6L31.5 37.9L28.7 40.7L37.2 49.2V49.2M40 60C37.2333 60 34.6333 59.475 32.2 58.425C29.7667 57.375 27.65 55.95 25.85 54.15C24.05 52.35 22.625 50.2333 21.575 47.8C20.525 45.3667 20 42.7667 20 40C20 37.2333 20.525 34.6333 21.575 32.2C22.625 29.7667 24.05 27.65 25.85 25.85C27.65 24.05 29.7667 22.625 32.2 21.575C34.6333 20.525 37.2333 20 40 20C42.7667 20 45.3667 20.525 47.8 21.575C50.2333 22.625 52.35 24.05 54.15 25.85C55.95 27.65 57.375 29.7667 58.425 32.2C59.475 34.6333 60 37.2333 60 40C60 42.7667 59.475 45.3667 58.425 47.8C57.375 50.2333 55.95 52.35 54.15 54.15C52.35 55.95 50.2333 57.375 47.8 58.425C45.3667 59.475 42.7667 60 40 60V60M40 56C44.4667 56 48.25 54.45 51.35 51.35C54.45 48.25 56 44.4667 56 40C56 35.5333 54.45 31.75 51.35 28.65C48.25 25.55 44.4667 24 40 24C35.5333 24 31.75 25.55 28.65 28.65C25.55 31.75 24 35.5333 24 40C24 44.4667 25.55 48.25 28.65 51.35C31.75 54.45 35.5333 56 40 56V56M40 40V40V40V40V40V40V40V40V40V40" fill="#10B981"/>
</svg>
